#N canvas 219 128 1061 672 10;
#X obj 206 383 cos~;
#X obj 242 479 *~;
#X obj 206 359 +~ 0.5;
#X obj 561 518 hip~ 5;
#X obj 257 305 vline~;
#X obj 360 307 sig~;
#X obj 257 348 *~;
#X obj 312 305 sig~;
#X msg 257 260 0 \, 1 \$1;
#X obj 257 191 unpack;
#X obj 257 381 *~;
#X obj 257 231 *;
#X obj 206 407 *~ 0.5;
#X obj 206 431 +~ 0.5;
#X obj 257 418 +~;
#X obj 416 308 sig~;
#X obj 133 155 del;
#X obj 133 104 t f b;
#X obj 257 452 tabread4~ \$1-file;
#X obj 257 138 t b f f;
#X msg 161 154 1 0;
#X msg 133 177 0 1;
#X obj 132 206 unpack;
#X obj 257 68 spigot 1;
#X obj 256 12 r \$1-data;
#X obj 332 138 r \$1-time/samples;
#X obj 256 37 route \$2;
#X obj 41 126 r \$1-reset;
#X text 71 68 voice state;
#X obj 311 233 t f f;
#X obj 414 270 *;
#X obj 257 95 unpack f f f;
#X obj 133 267 switch~;
#X obj 133 130 + 100;
#X obj 624 361 *~;
#X obj 561 413 cos~;
#X obj 561 440 *~;
#X obj 561 469 +~;
#X obj 648 320 wrap~;
#X obj 793 363 *~;
#X obj 730 423 cos~;
#X obj 730 450 *~;
#X obj 648 293 +~ 0.5;
#X obj 561 361 -~ 0.5;
#X obj 561 387 *~ 0.5;
#X obj 730 362 -~ 0.5;
#X obj 730 395 *~ 0.5;
#X obj 561 120 * 0.05776;
#X text 640 113 <-- transposition;
#X text 683 126 (halftones);
#X text 596 255 tape head;
#X obj 561 319 phasor~;
#X text 597 268 rotation freq;
#X obj 747 298 sig~ 100;
#X obj 688 192 sig~ 0.1;
#X obj 561 262 /~;
#X obj 561 225 *~ -1;
#X obj 561 199 -~ 1;
#X obj 561 146 exp;
#X obj 242 523 delwrite~ \$0-del 5000;
#X obj 624 413 vd~ \$0-del;
#X obj 793 425 vd~ \$0-del;
#X text 32 383 f(x)=0.5(cos(x+pi))+0.5;
#X msg 257 165 1591.56 70188;
#X obj 561 550 throw~ \$1-channel1;
#X text 424 400 f(x)=cos((x-pi)*0.5);
#X obj 879 433 f \$2;
#X obj 879 489 makefilename \$1-channel%d;
#X obj 879 513 prepend set;
#X obj 879 403 loadbang;
#X obj 879 461 mod \$3;
#X connect 0 0 12 0;
#X connect 1 0 59 0;
#X connect 2 0 0 0;
#X connect 3 0 64 0;
#X connect 4 0 6 0;
#X connect 4 0 2 0;
#X connect 5 0 10 1;
#X connect 6 0 10 0;
#X connect 7 0 6 1;
#X connect 8 0 4 0;
#X connect 9 0 11 0;
#X connect 9 1 29 0;
#X connect 10 0 14 0;
#X connect 11 0 8 0;
#X connect 11 0 17 0;
#X connect 12 0 13 0;
#X connect 13 0 1 0;
#X connect 14 0 18 0;
#X connect 15 0 14 1;
#X connect 16 0 21 0;
#X connect 17 0 33 0;
#X connect 17 1 20 0;
#X connect 18 0 1 1;
#X connect 19 0 63 0;
#X connect 19 1 11 1;
#X connect 19 2 5 0;
#X connect 20 0 22 0;
#X connect 21 0 22 0;
#X connect 22 0 32 0;
#X connect 22 1 23 1;
#X connect 23 0 31 0;
#X connect 24 0 26 0;
#X connect 25 0 63 0;
#X connect 26 0 23 0;
#X connect 27 0 21 0;
#X connect 29 0 7 0;
#X connect 29 1 30 0;
#X connect 30 0 15 0;
#X connect 31 0 19 0;
#X connect 31 1 30 1;
#X connect 31 2 47 0;
#X connect 33 0 16 0;
#X connect 34 0 60 0;
#X connect 35 0 36 0;
#X connect 36 0 37 0;
#X connect 37 0 3 0;
#X connect 38 0 39 0;
#X connect 38 0 45 0;
#X connect 39 0 61 0;
#X connect 40 0 41 0;
#X connect 41 0 37 1;
#X connect 42 0 38 0;
#X connect 43 0 44 0;
#X connect 44 0 35 0;
#X connect 45 0 46 0;
#X connect 46 0 40 0;
#X connect 47 0 58 0;
#X connect 51 0 34 0;
#X connect 51 0 43 0;
#X connect 51 0 42 0;
#X connect 53 0 34 1;
#X connect 53 0 39 1;
#X connect 54 0 55 1;
#X connect 55 0 51 0;
#X connect 56 0 55 0;
#X connect 57 0 56 0;
#X connect 58 0 57 0;
#X connect 60 0 36 1;
#X connect 61 0 41 1;
#X connect 63 0 9 0;
#X connect 66 0 70 0;
#X connect 67 0 68 0;
#X connect 68 0 64 0;
#X connect 69 0 66 0;
#X connect 70 0 67 0;
