#N canvas 390 22 642 367 10;
#X obj 69 137 f;
#X obj 133 136 f;
#X obj 103 167 t f f;
#X obj 69 206 +;
#X obj 183 99 unpack;
#X obj -124 148 f;
#X obj -23 151 f;
#X obj 34 75 t b b b b;
#X obj 44 249 outlet;
#X obj 34 20 inlet;
#X msg 183 72 0 1;
#X obj 183 20 inlet;
#X obj 232 21 loadbang;
#X text 32 -7 (bang) calculate;
#X text 180 -8 reset;
#X text 44 269 result;
#X obj 183 49 b;
#X text 95 136 a;
#X text 160 136 b;
#X text 4 152 old b;
#X text -96 148 new b;
#X text 220 158 store b temporarily in old b \; output a \; sum a and
b and store in new b \; move old b to a \; move new b to b \;;
#X connect 0 0 3 0;
#X connect 0 0 8 0;
#X connect 1 0 2 0;
#X connect 2 0 3 1;
#X connect 2 1 6 1;
#X connect 3 0 5 1;
#X connect 4 0 0 1;
#X connect 4 1 1 1;
#X connect 5 0 1 1;
#X connect 6 0 0 1;
#X connect 7 0 5 0;
#X connect 7 1 6 0;
#X connect 7 2 0 0;
#X connect 7 3 1 0;
#X connect 9 0 7 0;
#X connect 10 0 4 0;
#X connect 11 0 16 0;
#X connect 12 0 16 0;
#X connect 16 0 10 0;
