#N canvas 573 123 823 706 10;
#X obj 553 28 openpanel;
#X obj 553 57 t s b;
#X obj 602 57 \$0;
#X obj 552 81 pack s 0;
#X obj 552 124 soundfiler;
#X obj 552 228 pack f f;
#X obj 552 177 samplerate~;
#X obj 552 151 t b f f;
#X obj 552 205 /;
#X obj 48 415 cos~;
#X obj 95 450 *~;
#X obj 110 340 +~;
#X obj 338 420 cos~;
#X obj 388 455 *~;
#X obj 403 345 +~;
#X obj 403 147 wrap~;
#X obj 403 122 +~ 0.5;
#X obj 231 488 +~;
#X obj 110 204 *~;
#X obj 403 201 *~;
#X obj 552 256 unpack;
#X obj 585 281 s \$0-samples;
#X obj 418 173 r \$0-samples;
#X obj 125 179 r \$0-samples;
#X obj 110 261 *~;
#X obj 403 260 *~;
#X obj 109 83 phasor~;
#X obj 109 42 /~;
#X obj 109 -5 sig~;
#X obj 265 187 phasor~;
#X obj 265 263 *~;
#X obj 125 318 samphold~;
#X obj 418 322 samphold~;
#X obj 338 367 -~ 0.5;
#X obj 338 396 *~ 0.5;
#X obj 48 368 -~ 0.5;
#X obj 48 391 *~ 0.5;
#X obj 265 163 *~;
#X obj 280 211 r \$0-samples;
#X obj 280 237 sig~;
#X obj 265 139 sig~;
#X text 528 -37 load sound file;
#X obj 231 526 hip~ 5;
#X obj 109 -42 r \$0-duty;
#X obj 265 107 r \$0-duty;
#X obj 552 305 s \$0-duty;
#X obj 110 390 expr~ fmod($v1 \, $f2);
#X obj 227 363 r \$0-samples;
#X obj 403 384 expr~ fmod($v1 \, $f2);
#X obj 520 357 r \$0-samples;
#X text 302 -6 lens;
#X text 428 -4 speed;
#X obj 655 228 table \$0-R;
#X obj 655 207 table \$0-L;
#X msg 552 103 read -resize \$1 \$2-L \$2-R;
#X obj 110 418 tabread4~ \$0-L;
#X obj 403 423 tabread4~ \$0-L;
#X obj 504 424 tabread4~ \$0-R;
#X obj 206 418 tabread4~ \$0-R;
#X obj 489 454 *~;
#X obj 191 450 *~;
#X obj 316 488 +~;
#X obj 316 527 hip~ 5;
#X text 660 184 arrays;
#X text 318 186 main motor;
#X text 163 81 grain motor;
#X obj 303 25 inlet~;
#X obj 425 26 inlet~;
#X obj 553 2 inlet;
#X obj 316 588 outlet~;
#X obj 231 587 outlet~;
#X obj 740 90 outlet;
#X obj 740 63 prepend set;
#X connect 0 0 1 0;
#X connect 0 0 72 0;
#X connect 1 0 3 0;
#X connect 1 1 2 0;
#X connect 2 0 3 1;
#X connect 3 0 54 0;
#X connect 4 0 7 0;
#X connect 5 0 20 0;
#X connect 6 0 8 0;
#X connect 7 0 6 0;
#X connect 7 1 8 1;
#X connect 7 2 5 1;
#X connect 8 0 5 0;
#X connect 9 0 10 0;
#X connect 9 0 60 0;
#X connect 10 0 17 0;
#X connect 11 0 46 0;
#X connect 12 0 13 0;
#X connect 12 0 59 0;
#X connect 13 0 17 1;
#X connect 14 0 48 0;
#X connect 15 0 19 0;
#X connect 15 0 32 1;
#X connect 15 0 33 0;
#X connect 16 0 15 0;
#X connect 17 0 42 0;
#X connect 18 0 24 0;
#X connect 19 0 25 0;
#X connect 20 0 45 0;
#X connect 20 1 21 0;
#X connect 22 0 19 1;
#X connect 23 0 18 1;
#X connect 24 0 11 0;
#X connect 25 0 14 0;
#X connect 26 0 16 0;
#X connect 26 0 18 0;
#X connect 26 0 31 1;
#X connect 26 0 35 0;
#X connect 27 0 26 0;
#X connect 28 0 27 0;
#X connect 29 0 30 0;
#X connect 30 0 31 0;
#X connect 30 0 32 0;
#X connect 31 0 11 1;
#X connect 32 0 14 1;
#X connect 33 0 34 0;
#X connect 34 0 12 0;
#X connect 35 0 36 0;
#X connect 36 0 9 0;
#X connect 37 0 29 0;
#X connect 38 0 39 0;
#X connect 39 0 30 1;
#X connect 40 0 37 0;
#X connect 42 0 70 0;
#X connect 43 0 28 0;
#X connect 44 0 40 0;
#X connect 46 0 55 0;
#X connect 46 0 58 0;
#X connect 47 0 46 1;
#X connect 48 0 56 0;
#X connect 48 0 57 0;
#X connect 49 0 48 1;
#X connect 54 0 4 0;
#X connect 55 0 10 1;
#X connect 56 0 13 1;
#X connect 57 0 59 1;
#X connect 58 0 60 1;
#X connect 59 0 61 1;
#X connect 60 0 61 0;
#X connect 61 0 62 0;
#X connect 62 0 69 0;
#X connect 66 0 27 1;
#X connect 66 0 24 1;
#X connect 66 0 25 1;
#X connect 67 0 37 1;
#X connect 68 0 0 0;
#X connect 72 0 71 0;
