#N canvas 358 219 348 369 10;
#X obj 51 83 inlet;
#X obj 113 83 inlet;
#X obj 193 84 inlet;
#X obj 51 313 outlet;
#X obj 142 207 % \$2;
#X obj 92 206 + \$1;
#X msg 51 121 bang;
#X text 53 53 next;
#X text 101 53 increment;
#X text 199 54 end;
#X obj 51 258 + 1;
#X obj 250 84 inlet;
#X msg 250 122 0;
#X text 249 55 reset;
#X obj 51 206 f 0;
#X connect 0 0 6 0;
#X connect 1 0 5 1;
#X connect 2 0 4 1;
#X connect 4 0 14 1;
#X connect 5 0 4 0;
#X connect 6 0 14 0;
#X connect 10 0 3 0;
#X connect 11 0 12 0;
#X connect 12 0 14 1;
#X connect 14 0 5 0;
#X connect 14 0 10 0;
