#N canvas 251 44 515 738 10;
#X obj 62 470 print;
#X obj 61 274 pack;
#X obj 60 251 notein 1;
#X obj 114 492 noteout 1;
#X obj 114 470 unpack;
#X text 130 259 <--for recording incoming midi notes;
#X text 195 477 <--send recorded note info to instrument;
#X text 205 307 CONTROLS \; open score window \; append notes manually
\; record incoming midi notes \; display pitch and time on the score
\; open and save a scorefile;
#X text 60 519 messages can be sent to instances of noteseq to open
a score via a path message.;
#X text 59 608 control click on a note in the sequencer window and
choose properties. This will bring up a text window from which you
can edit the note data as well.;
#X text 55 582 "the piano establishes the key" - K. Austin;
#X obj 61 306 pdt.noteseq helpseq;
#X obj 205 81 pdt.transport;
#X msg 60 549 \; helpseq helpseq.txt;
#X text 67 42 controls play \, stop \, and tempo functions globally
for every instance of the noteseq abstraction;
#X text 67 21 ---pdt.trasport---;
#X text 54 205 This abstraction holds the note information for 1 part.
A creation argument is required to name the instance and avoid confusion
with other instances.;
#X text 55 182 ---pdt.noteseq---;
#X obj 6 -32 cnv 15 500 40 empty empty pdt.noteseq~ 20 12 0 14 -4160
-262144 0;
#X connect 1 0 11 0;
#X connect 2 0 1 0;
#X connect 2 1 1 1;
#X connect 4 0 3 0;
#X connect 4 1 3 1;
#X connect 11 0 0 0;
#X connect 11 0 4 0;
