#N canvas 0 22 280 285 10;
#X obj 68 147 /;
#X obj 68 87 t b f;
#X msg 68 119 60000;
#X obj 68 57 inlet;
#X obj 68 183 outlet;
#X connect 0 0 4 0;
#X connect 1 0 2 0;
#X connect 1 1 0 1;
#X connect 2 0 0 0;
#X connect 3 0 1 0;
