#N canvas 1002 110 689 690 10;
#X obj 224 115 s \$0-reset;
#X text 191 303 Voices;
#X text 182 24 sets all voices to not busy and dsp off;
#X msg 224 82 bang;
#X obj 224 58 inlet;
#X obj 293 45 loadbang;
#X obj 58 576 outlet~;
#X obj 58 548 catch~ \$0-channel0;
#X obj 122 603 outlet~;
#X obj 182 631 outlet~;
#X obj 290 573 outlet~;
#X obj 354 600 outlet~;
#X obj 122 575 catch~ \$0-channel1;
#X obj 182 603 catch~ \$0-channel2;
#X obj 290 545 catch~ \$0-channel3;
#X obj 354 572 catch~ \$0-channel4;
#X obj 39 35 inlet~;
#X obj 39 64 s~ \$0-signal;
#X obj 35 327 rtparticle \$0 1 5;
#X obj 35 349 rtparticle \$0 2 5;
#X obj 35 372 rtparticle \$0 3 5;
#X obj 36 395 rtparticle \$0 4 5;
#X obj 36 418 rtparticle \$0 5 5;
#X obj 36 441 rtparticle \$0 6 5;
#X obj 36 463 rtparticle \$0 7 5;
#X obj 36 486 rtparticle \$0 8 5;
#X obj 157 328 rtparticle \$0 9 5;
#X obj 157 350 rtparticle \$0 10 5;
#X obj 157 373 rtparticle \$0 11 5;
#X obj 158 396 rtparticle \$0 12 5;
#X obj 158 419 rtparticle \$0 13 5;
#X obj 158 442 rtparticle \$0 14 5;
#X obj 158 464 rtparticle \$0 15 5;
#X obj 158 487 rtparticle \$0 16 5;
#X obj 286 328 rtparticle \$0 17 5;
#X obj 286 350 rtparticle \$0 18 5;
#X obj 286 373 rtparticle \$0 19 5;
#X obj 287 396 rtparticle \$0 20 5;
#X obj 287 419 rtparticle \$0 21 5;
#X obj 287 442 rtparticle \$0 22 5;
#X obj 287 464 rtparticle \$0 23 5;
#X obj 287 487 rtparticle \$0 24 5;
#X obj 417 328 rtparticle \$0 25 5;
#X obj 417 350 rtparticle \$0 26 5;
#X obj 417 373 rtparticle \$0 27 5;
#X obj 418 396 rtparticle \$0 28 5;
#X obj 418 419 rtparticle \$0 29 5;
#X obj 418 442 rtparticle \$0 30 5;
#X obj 418 464 rtparticle \$0 31 5;
#X obj 418 487 rtparticle \$0 32 5;
#X obj 467 125 f 1;
#X obj 501 124 + 1;
#X obj 467 189 + 1;
#X obj 467 30 inlet;
#X text 558 154 voice routing;
#X obj 467 251 s \$0-instructions;
#X obj 467 162 mod 32;
#X obj 467 96 t b l, f 11;
#X obj 467 225 pack f f f f;
#X obj 530 192 unpack f f f;
#X connect 3 0 0 0;
#X connect 4 0 3 0;
#X connect 5 0 3 0;
#X connect 7 0 6 0;
#X connect 12 0 8 0;
#X connect 13 0 9 0;
#X connect 14 0 10 0;
#X connect 15 0 11 0;
#X connect 16 0 17 0;
#X connect 50 0 51 0;
#X connect 50 0 56 0;
#X connect 51 0 50 1;
#X connect 52 0 58 0;
#X connect 53 0 57 0;
#X connect 56 0 52 0;
#X connect 57 0 50 0;
#X connect 57 1 59 0;
#X connect 58 0 55 0;
#X connect 59 0 58 1;
#X connect 59 1 58 2;
#X connect 59 2 58 3;
#X coords 0 0 1 1 206 95 0;
