#N canvas 0 22 516 416 10;
#X obj 34 129 adc~ 1;
#X obj 199 203 pdt.delay~;
#X obj 113 88 osc~ 0.5;
#X obj 306 131 sig~ 0.6;
#X obj 395 173 sig~ 0.5;
#X obj 7 -8 cnv 15 500 40 empty empty pdt.delay~ 20 12 0 14 -4160 -262144
0;
#X obj 221 132 mtof;
#X obj 221 109 nbx 3 14 0 127 0 1 empty empty empty 0 -8 0 10 -262144
-1 -1 89 256;
#X text 193 89 high pass frequency;
#X text 281 112 feedback (0 - .9);
#X text 388 155 mix (0 - 1);
#X text 34 105 input;
#X text 102 67 delay time (ms);
#X obj 184 254 pdt.master2~;
#X obj 113 110 *~ 1000;
#X obj 113 132 +~ 1100;
#X connect 0 0 1 0;
#X connect 1 0 13 0;
#X connect 1 0 13 1;
#X connect 2 0 14 0;
#X connect 3 0 1 3;
#X connect 4 0 1 4;
#X connect 6 0 1 2;
#X connect 7 0 6 0;
#X connect 14 0 15 0;
#X connect 15 0 1 1;
