#N canvas 687 257 317 438 10;
#X obj 59 251 pdt.xfade~;
#X obj 43 183 osc~ 220;
#X obj 107 183 osc~ 440;
#X obj 209 221 line~;
#X msg 209 198 \$1 50;
#X floatatom 209 170 0 0 1 0 - - - 0;
#X obj 8 7 cnv 15 300 40 empty empty pdt.xfade~ 20 12 0 14 #0400fc #fcfcfc 0;
#X text 24 69 Left inlet - first signal;
#X text 23 88 Center inlet - second signal;
#X text 24 106 Right inlet - control signal between 0 - 1;
#X obj 59 293 pdt.master2~;
#X connect 0 0 10 0;
#X connect 0 0 10 1;
#X connect 1 0 0 0;
#X connect 2 0 0 1;
#X connect 3 0 0 2;
#X connect 4 0 3 0;
#X connect 5 0 4 0;
