#N canvas 442 37 644 447 10;
#X obj 398 39 change;
#N canvas 0 22 475 206 map 0;
#X obj 149 46 sel a w s e d f t g y h u j k;
#X msg 14 104 60;
#X msg 47 104 61;
#X msg 113 104 63;
#X msg 147 104 64;
#X msg 181 104 65;
#X msg 216 104 66;
#X msg 251 104 67;
#X msg 285 104 68;
#X msg 322 104 69;
#X msg 358 104 70;
#X msg 395 104 71;
#X msg 430 104 72;
#X msg 80 104 61;
#X obj 217 166 outlet;
#X obj 149 17 inlet;
#X connect 0 0 1 0;
#X connect 0 1 2 0;
#X connect 0 2 13 0;
#X connect 0 3 3 0;
#X connect 0 4 4 0;
#X connect 0 5 5 0;
#X connect 0 6 6 0;
#X connect 0 7 7 0;
#X connect 0 8 8 0;
#X connect 0 9 9 0;
#X connect 0 10 10 0;
#X connect 0 11 11 0;
#X connect 0 12 12 0;
#X connect 1 0 14 0;
#X connect 2 0 14 0;
#X connect 3 0 14 0;
#X connect 4 0 14 0;
#X connect 5 0 14 0;
#X connect 6 0 14 0;
#X connect 7 0 14 0;
#X connect 8 0 14 0;
#X connect 9 0 14 0;
#X connect 10 0 14 0;
#X connect 11 0 14 0;
#X connect 12 0 14 0;
#X connect 13 0 14 0;
#X connect 15 0 0 0;
#X restore 355 98 pd map;
#X obj 340 154 f;
#X obj 340 187 pack f f;
#X obj 398 148 * 127;
#X obj 341 283 unpack;
#X obj 341 323 +;
#X obj 341 359 outlet;
#X obj 396 359 outlet;
#X obj 397 244 sel 0 1 2 3 4;
#X msg 397 281 -24;
#X msg 431 281 -12;
#X msg 467 281 0;
#X msg 501 281 12;
#X msg 537 281 24;
#X obj 104 121 tgl 15 0 empty empty empty 17 7 0 10 -262144 -1 -1 0
1;
#X obj 131 121 hradio 15 1 1 5 empty empty empty 0 -8 0 10 -262144
-1 -1 2;
#X obj 398 61 t b f;
#X obj 316 1 gemkeyname;
#X obj 104 219 gemwin;
#X msg 163 217 destroy;
#X obj 104 167 sel 1 0;
#X msg 103 194 create \, dimen 50 30;
#X connect 0 0 17 0;
#X connect 1 0 2 1;
#X connect 2 0 3 0;
#X connect 3 0 5 0;
#X connect 4 0 3 1;
#X connect 5 0 6 0;
#X connect 5 1 8 0;
#X connect 6 0 7 0;
#X connect 9 0 10 0;
#X connect 9 1 11 0;
#X connect 9 2 12 0;
#X connect 9 3 13 0;
#X connect 9 4 14 0;
#X connect 10 0 6 1;
#X connect 11 0 6 1;
#X connect 12 0 6 1;
#X connect 13 0 6 1;
#X connect 14 0 6 1;
#X connect 15 0 21 0;
#X connect 16 0 9 0;
#X connect 17 0 2 0;
#X connect 17 1 4 0;
#X connect 18 0 0 0;
#X connect 18 1 1 0;
#X connect 20 0 19 0;
#X connect 21 0 22 0;
#X connect 21 1 20 0;
#X connect 22 0 19 0;
#X coords 0 -1 1 1 110 40 1 100 100;
