#N canvas 274 123 450 300 10;
#X obj 98 66 inlet;
#X obj 98 196 + \$1;
#X obj 185 66 inlet;
#X obj 98 258 outlet;
#X obj 230 145 <= 1;
#X obj 143 122 t f f;
#X obj 185 173 spigot 1;
#X obj 98 226 pack f f;
#X obj 98 93 unpack f f;
#X connect 0 0 8 0;
#X connect 1 0 7 0;
#X connect 2 0 6 0;
#X connect 4 0 6 1;
#X connect 5 0 7 1;
#X connect 5 1 4 0;
#X connect 6 0 1 1;
#X connect 7 0 3 0;
#X connect 8 0 1 0;
#X connect 8 1 5 0;
