#N canvas 304 160 221 205 10;
#X floatatom 140 162 0 0 0 0 - - -;
#X obj 10 8 cnv 15 200 40 empty empty pdt.cointoss 20 12 0 14 -4160
-262144 0;
#X floatatom 140 66 3 0 100 0 - - -;
#X obj 53 118 pdt.cointoss 50;
#X obj 53 66 bng 15 250 50 0 empty empty empty 17 7 0 10 -262144 -1
-1;
#X obj 53 163 bng 15 250 50 0 empty empty empty 17 7 0 10 -262144 -1
-1;
#X connect 2 0 3 1;
#X connect 3 0 5 0;
#X connect 3 1 0 0;
#X connect 4 0 3 0;
