#N canvas 883 284 262 286 10;
#X obj 70 131 cos~;
#X obj 55 46 inlet~;
#X obj 55 181 *~;
#X obj 55 224 outlet~;
#X obj 149 130 cos~;
#X obj 134 180 *~;
#X obj 134 223 outlet~;
#X obj 203 44 inlet~;
#X obj 203 68 *~ 0.25;
#X obj 203 91 -~ 0.25;
#X obj 132 45 inlet~;
#X connect 0 0 2 1;
#X connect 1 0 2 0;
#X connect 2 0 3 0;
#X connect 4 0 5 1;
#X connect 5 0 6 0;
#X connect 7 0 8 0;
#X connect 8 0 9 0;
#X connect 8 0 0 0;
#X connect 9 0 4 0;
#X connect 10 0 5 0;
