#N canvas 1002 110 689 690 10;
#X obj 467 125 f 1;
#X obj 501 124 + 1;
#X obj 467 189 + 1;
#X obj 224 115 s \$0-reset;
#X text 191 303 Voices;
#X text 182 24 sets all voices to not busy and dsp off;
#X obj 467 30 inlet;
#X msg 224 82 bang;
#X obj 224 58 inlet;
#X obj 293 45 loadbang;
#X text 558 154 voice routing;
#X obj 58 576 outlet~;
#X obj 58 548 catch~ \$0-channel0;
#X obj 196 575 outlet~;
#X obj 196 547 catch~ \$0-channel1;
#X obj 39 35 inlet~;
#X obj 39 64 s~ \$0-signal;
#X obj 467 251 s \$0-instructions;
#X obj 467 162 mod 32;
#X obj 35 327 rtparticle \$0 1 2;
#X obj 35 349 rtparticle \$0 2 2;
#X obj 35 372 rtparticle \$0 3 2;
#X obj 36 395 rtparticle \$0 4 2;
#X obj 36 418 rtparticle \$0 5 2;
#X obj 36 441 rtparticle \$0 6 2;
#X obj 36 463 rtparticle \$0 7 2;
#X obj 36 486 rtparticle \$0 8 2;
#X obj 157 328 rtparticle \$0 9 2;
#X obj 157 350 rtparticle \$0 10 2;
#X obj 157 373 rtparticle \$0 11 2;
#X obj 158 396 rtparticle \$0 12 2;
#X obj 158 419 rtparticle \$0 13 2;
#X obj 158 442 rtparticle \$0 14 2;
#X obj 158 464 rtparticle \$0 15 2;
#X obj 158 487 rtparticle \$0 16 2;
#X obj 286 328 rtparticle \$0 17 2;
#X obj 286 350 rtparticle \$0 18 2;
#X obj 286 373 rtparticle \$0 19 2;
#X obj 287 396 rtparticle \$0 20 2;
#X obj 287 419 rtparticle \$0 21 2;
#X obj 287 442 rtparticle \$0 22 2;
#X obj 287 464 rtparticle \$0 23 2;
#X obj 287 487 rtparticle \$0 24 2;
#X obj 417 328 rtparticle \$0 25 2;
#X obj 417 350 rtparticle \$0 26 2;
#X obj 417 373 rtparticle \$0 27 2;
#X obj 418 396 rtparticle \$0 28 2;
#X obj 418 419 rtparticle \$0 29 2;
#X obj 418 442 rtparticle \$0 30 2;
#X obj 418 464 rtparticle \$0 31 2;
#X obj 418 487 rtparticle \$0 32 2;
#X obj 467 96 t b l, f 11;
#X obj 467 225 pack f f f f;
#X obj 530 192 unpack f f f;
#X connect 0 0 1 0;
#X connect 0 0 18 0;
#X connect 1 0 0 1;
#X connect 2 0 52 0;
#X connect 6 0 51 0;
#X connect 7 0 3 0;
#X connect 8 0 7 0;
#X connect 9 0 7 0;
#X connect 12 0 11 0;
#X connect 14 0 13 0;
#X connect 15 0 16 0;
#X connect 18 0 2 0;
#X connect 51 0 0 0;
#X connect 51 1 53 0;
#X connect 52 0 17 0;
#X connect 53 0 52 1;
#X connect 53 1 52 2;
#X connect 53 2 52 3;
#X coords 0 0 1 1 206 95 0;
