#N struct 1391-samplewindow float x float y array 1391-windowtemplate
1391-window;
#N struct 1391-window float x float y;
#N canvas 27 22 695 641 10;
#N canvas 0 22 450 300 (subpatch) 0;
#X array \$0-file 100 float 2;
#X coords 0 1 100 -1 200 50 1;
#X restore 703 138 graph;
#N canvas 0 22 604 415 \$0-lens 0;
#X scalar 1391-samplewindow 0 0 \; 0 0 \; 4 0 \; \;;
#X coords 0 0 200 50 200 50 1;
#X restore 703 138 pd \$0-lens;
#X obj 515 119 openpanel;
#X obj 515 148 t s b;
#X obj 564 148 \$0;
#X obj 514 172 pack s 0;
#X obj 514 215 soundfiler;
#X msg 514 194 read -resize \$1 \$2-file;
#X obj 514 363 pack f f;
#X obj 533 277 samplerate~;
#X obj 515 73 inlet;
#X obj 514 323 /;
#X obj 532 298 * 0.001;
#X obj 514 242 t f b f;
#X obj 32 257 s \$0-data;
#X obj 35 101 t l b;
#X obj 35 230 prepend;
#X obj 74 134 f 1;
#X obj 108 133 + 1;
#X obj 74 198 + 1;
#X obj 226 125 s \$0-reset;
#X text 191 303 Voices;
#X text 184 34 sets all voices to not busy and dsp off;
#X text 486 48 load sound file;
#X obj 35 35 inlet;
#X msg 226 92 bang;
#X obj 226 68 inlet;
#X obj 592 386 print sampletime;
#X obj 295 55 loadbang;
#X obj 514 391 prepend set;
#X obj 514 413 s \$0-time/samples;
#N canvas 397 173 406 416 track 0;
#X obj 21 359 set \$0-window x;
#X obj 197 244 f \$0;
#X msg 197 287 traverse \$1 \, next;
#X obj 197 310 pointer;
#X obj 21 257 t f b b;
#X obj 81 256 t f b b;
#X obj 121 336 element \$0-samplewindow \$0-windowtemplate;
#X obj 43 280 f 0;
#X obj 103 279 f 1;
#X obj 197 266 makefilename pd-%d-lens;
#X obj 22 25 r \$0-data;
#X obj 21 159 * 200;
#X obj 22 56 unpack f f f;
#X obj 96 159 * 200;
#X obj 81 195 +;
#X obj 81 226 clip 0 200;
#X obj 21 119 f;
#X obj 55 89 t b f;
#X connect 1 0 9 0;
#X connect 2 0 3 0;
#X connect 3 0 6 1;
#X connect 4 0 0 0;
#X connect 4 1 7 0;
#X connect 4 2 1 0;
#X connect 5 0 0 0;
#X connect 5 1 8 0;
#X connect 5 2 1 0;
#X connect 6 0 0 1;
#X connect 7 0 6 0;
#X connect 8 0 6 0;
#X connect 9 0 2 0;
#X connect 10 0 12 0;
#X connect 11 0 4 0;
#X connect 11 0 14 0;
#X connect 12 1 17 0;
#X connect 12 2 16 1;
#X connect 13 0 14 1;
#X connect 14 0 15 0;
#X connect 15 0 5 0;
#X connect 16 0 11 0;
#X connect 17 0 16 0;
#X connect 17 1 13 0;
#X restore 717 261 pd track;
#N canvas 0 22 465 150 samplewindow 0;
#X obj 51 17 struct \$0-samplewindow float x float y array \$0-windowtemplate
\$0-window;
#X obj 50 57 plot \$0-windowtemplate 999 0 0 0 0;
#X restore 717 289 pd samplewindow;
#N canvas 204 96 329 168 window 0;
#X obj 38 51 struct \$0-window float x float y;
#X obj 37 77 drawpolygon 900 1 0 0 0 50;
#X restore 717 310 pd window;
#N canvas 0 22 408 390 reset 0;
#X obj 205 51 f \$0;
#X msg 205 98 \; \$1 clear;
#X obj 160 179 pointer;
#X obj 160 113 f \$0;
#X msg 160 156 traverse \$1 \, bang;
#X obj 73 175 unpack;
#X msg 73 144 0 0;
#X obj 73 199 append \$0-samplewindow x y;
#X obj 55 317 setsize \$0-samplewindow \$0-windowtemplate;
#X msg 55 283 2;
#X obj 164 292 pointer;
#X obj 164 226 f \$0;
#X obj 55 237 t b b;
#X msg 164 269 traverse \$1 \, next;
#X obj 54 48 loadbang;
#X obj 54 80 t b b b b;
#X obj 205 72 makefilename pd-%d-lens;
#X obj 160 134 makefilename pd-%d-lens;
#X obj 164 247 makefilename pd-%d-lens;
#X connect 0 0 16 0;
#X connect 2 0 7 2;
#X connect 3 0 17 0;
#X connect 4 0 2 0;
#X connect 5 0 7 0;
#X connect 5 1 7 1;
#X connect 6 0 5 0;
#X connect 9 0 8 0;
#X connect 10 0 8 1;
#X connect 11 0 18 0;
#X connect 12 0 9 0;
#X connect 12 1 11 0;
#X connect 13 0 10 0;
#X connect 14 0 15 0;
#X connect 15 0 12 0;
#X connect 15 1 6 0;
#X connect 15 2 3 0;
#X connect 15 3 0 0;
#X connect 16 0 1 0;
#X connect 17 0 4 0;
#X connect 18 0 13 0;
#X restore 717 331 pd reset;
#X msg 724 462 \; \$1-file resize 100;
#X obj 724 436 f \$0;
#X obj 724 410 loadbang;
#X obj 74 171 mod 32;
#X text 129 171 voice routing;
#X obj 608 168 outlet;
#X obj 608 142 prepend set;
#X obj 515 97 route bang;
#X obj 579 120 prepend symbol;
#X obj 263 535 catch~ \$0-channel1;
#X obj 263 563 outlet~;
#X obj 51 332 particle \$0 1 2;
#X obj 51 354 particle \$0 2 2;
#X obj 51 377 particle \$0 3 2;
#X obj 52 400 particle \$0 4 2;
#X obj 52 423 particle \$0 5 2;
#X obj 52 446 particle \$0 6 2;
#X obj 52 468 particle \$0 7 2;
#X obj 52 491 particle \$0 8 2;
#X obj 150 332 particle \$0 9 2;
#X obj 150 354 particle \$0 10 2;
#X obj 150 377 particle \$0 11 2;
#X obj 151 400 particle \$0 12 2;
#X obj 151 423 particle \$0 13 2;
#X obj 151 446 particle \$0 14 2;
#X obj 151 468 particle \$0 15 2;
#X obj 151 491 particle \$0 16 2;
#X obj 256 332 particle \$0 17 2;
#X obj 256 354 particle \$0 18 2;
#X obj 256 377 particle \$0 19 2;
#X obj 257 400 particle \$0 20 2;
#X obj 257 423 particle \$0 21 2;
#X obj 257 446 particle \$0 22 2;
#X obj 257 468 particle \$0 23 2;
#X obj 257 491 particle \$0 24 2;
#X obj 362 332 particle \$0 25 2;
#X obj 362 354 particle \$0 26 2;
#X obj 362 377 particle \$0 27 2;
#X obj 363 400 particle \$0 28 2;
#X obj 363 423 particle \$0 29 2;
#X obj 363 446 particle \$0 30 2;
#X obj 363 468 particle \$0 31 2;
#X obj 363 491 particle \$0 32 2;
#X obj 141 563 outlet~;
#X obj 141 535 catch~ \$0-channel0;
#X connect 2 0 3 0;
#X connect 2 0 41 0;
#X connect 3 0 5 0;
#X connect 3 1 4 0;
#X connect 4 0 5 1;
#X connect 5 0 7 0;
#X connect 6 0 13 0;
#X connect 7 0 6 0;
#X connect 8 0 27 0;
#X connect 8 0 29 0;
#X connect 9 0 12 0;
#X connect 10 0 42 0;
#X connect 11 0 8 0;
#X connect 12 0 11 1;
#X connect 13 0 11 0;
#X connect 13 1 9 0;
#X connect 13 2 8 1;
#X connect 15 0 16 0;
#X connect 15 1 17 0;
#X connect 16 0 14 0;
#X connect 17 0 18 0;
#X connect 17 0 38 0;
#X connect 18 0 17 1;
#X connect 19 0 16 1;
#X connect 24 0 15 0;
#X connect 25 0 20 0;
#X connect 26 0 25 0;
#X connect 28 0 25 0;
#X connect 29 0 30 0;
#X connect 36 0 35 0;
#X connect 37 0 36 0;
#X connect 38 0 19 0;
#X connect 41 0 40 0;
#X connect 42 0 2 0;
#X connect 42 1 43 0;
#X connect 43 0 3 0;
#X connect 44 0 45 0;
#X connect 79 0 78 0;
#X coords 0 -1 1 1 206 95 1 700 100;
