#N canvas 105 22 1081 646 10;
#X obj 20 35 env~ 8192;
#X obj 126 130 vu 15 80 empty empty -1 -8 0 10 -66577 -1 0 0;
#X obj 20 61 - 101;
#X obj 90 36 env~ 8192;
#X obj 221 130 vu 15 80 empty empty -1 -8 1 9 -66577 -1 1 0;
#X obj 90 62 - 101;
#X obj 103 130 vsl 20 80 0.01 1 1 0 \$0-v \$0-v empty 0 0 0 4 -4160
-262144 -195568 0 0;
#X obj 18 -107 *~;
#X obj 18 -171 hip~ 5;
#X obj 18 -229 inlet~;
#X obj 88 -107 *~;
#X obj 88 -171 hip~ 5;
#X obj 88 -229 inlet~;
#X obj -55 -167 line~;
#X msg -315 -74 start;
#X msg -357 -74 stop;
#X obj -265 -136 samplerate~;
#X obj -265 -106 pack f s;
#X obj -284 -173 t b b s;
#X obj -303 -239 sel 0 1;
#X obj 237 103 tgl 20 0 empty empty rec 2 10 0 10 -262144 -261234 -1
0 1;
#X obj 191 103 tgl 20 0 THIS_IS_HERE_TO_GET_RID_OF_THE_OUTLET \$0-dsp-toggle
dsp 2 9 1 9 -262144 -195568 -33289 0 1;
#N canvas 366 514 482 356 dsp 0;
#X obj 11 7 inlet;
#X obj 92 226 select 0 1;
#X msg 125 248 6;
#X obj 92 57 route dsp;
#X obj 92 36 receive pd;
#X obj 206 138 loadbang;
#X msg 11 220 dsp \$1;
#X obj 11 245 send pd;
#X msg 206 278 set \$1;
#X obj 206 174 value GLOBAL_PDDP_DSP;
#X msg 109 278 color \$1 20 12;
#X obj 180 309 send \$0-dsp-toggle;
#X obj 92 115 change;
#X msg 92 247 0;
#X connect 0 0 6 0;
#X connect 0 0 12 0;
#X connect 1 0 13 0;
#X connect 1 1 2 0;
#X connect 2 0 10 0;
#X connect 3 0 12 0;
#X connect 4 0 3 0;
#X connect 5 0 9 0;
#X connect 6 0 7 0;
#X connect 8 0 11 0;
#X connect 9 0 8 0;
#X connect 9 0 1 0;
#X connect 10 0 11 0;
#X connect 12 0 8 0;
#X connect 12 0 1 0;
#X connect 12 0 9 0;
#X connect 13 0 10 0;
#X restore 124 240 pd dsp logic;
#X obj 214 103 bng 20 1000 50 0 THIS_IS_HERE_TO_GET_RID_OF_THE_OUTLET
\$0-MUTE_TOGGLE empty 0 9 2 8 -262144 -258699 -195568;
#X obj -20 382 send pd;
#X msg -20 361 dsp 1;
#N canvas 679 297 361 328 mute 0;
#X obj 23 20 inlet;
#X obj 173 20 inlet;
#X obj 222 208 float;
#X obj 265 121 tgl 15 1 empty empty empty 17 7 0 10 -262144 -1 -1 1
1;
#X obj 222 162 spigot;
#X obj 172 41 trigger bang bang;
#X obj 254 263 outlet;
#X msg 274 208 0;
#X obj 274 163 select 0;
#X obj 127 64 bang;
#X msg 127 85 set 1;
#X obj 65 304 send \$0-MUTE_TOGGLE;
#X msg 65 283 color \$1 13 20;
#X obj 65 235 bang;
#X msg 65 255 0;
#X msg 98 255 3;
#X connect 0 0 2 1;
#X connect 0 0 9 0;
#X connect 1 0 5 0;
#X connect 2 0 6 0;
#X connect 2 0 13 0;
#X connect 3 0 4 1;
#X connect 3 0 8 0;
#X connect 4 0 2 0;
#X connect 5 0 4 0;
#X connect 5 1 3 0;
#X connect 7 0 6 0;
#X connect 8 0 7 0;
#X connect 8 0 15 0;
#X connect 9 0 10 0;
#X connect 9 0 13 0;
#X connect 10 0 3 0;
#X connect 12 0 11 0;
#X connect 13 0 14 0;
#X connect 14 0 12 0;
#X connect 15 0 12 0;
#X restore 54 240 pd mute;
#X obj 54 346 pack 0 50;
#X msg 54 311 0;
#X obj 54 288 moses 0.011;
#X obj -284 -200 savepanel;
#X msg -265 -75 open -bytes 3 -wave -rate \$1 \$2;
#X obj 162 36 env~ 8192;
#X obj 162 62 - 101;
#X obj 160 -107 *~;
#X obj 160 -171 hip~ 5;
#X obj 160 -229 inlet~;
#X obj 238 36 env~ 8192;
#X obj 238 62 - 101;
#X obj 236 -107 *~;
#X obj 236 -171 hip~ 5;
#X obj 236 -229 inlet~;
#X obj 310 36 env~ 8192;
#X obj 310 62 - 101;
#X obj 308 -107 *~;
#X obj 308 -171 hip~ 5;
#X obj 308 -229 inlet~;
#X obj 383 37 env~ 8192;
#X obj 383 63 - 101;
#X obj 381 -106 *~;
#X obj 381 -170 hip~ 5;
#X obj 381 -228 inlet~;
#X obj 145 130 vu 15 80 empty empty -1 -8 0 10 -66577 -1 0 0;
#X obj 164 130 vu 15 80 empty empty -1 -8 0 10 -66577 -1 0 0;
#X obj 183 130 vu 15 80 empty empty -1 -8 0 10 -66577 -1 0 0;
#X obj 202 130 vu 15 80 empty empty -1 -8 0 10 -66577 -1 0 0;
#X obj 203 10 dac~ 1 2 3 4 5 6;
#X obj -13 14 writesf~ 6;
#X connect 0 0 2 0;
#X connect 2 0 1 0;
#X connect 3 0 5 0;
#X connect 5 0 52 0;
#X connect 6 0 25 0;
#X connect 6 0 29 0;
#X connect 6 0 26 0;
#X connect 7 0 0 0;
#X connect 7 0 56 0;
#X connect 7 0 57 0;
#X connect 8 0 7 0;
#X connect 9 0 8 0;
#X connect 10 0 3 0;
#X connect 10 0 56 1;
#X connect 10 0 57 1;
#X connect 11 0 10 0;
#X connect 12 0 11 0;
#X connect 13 0 10 1;
#X connect 13 0 7 1;
#X connect 13 0 34 1;
#X connect 13 0 39 1;
#X connect 13 0 44 1;
#X connect 13 0 49 1;
#X connect 14 0 57 0;
#X connect 15 0 57 0;
#X connect 16 0 17 0;
#X connect 17 0 31 0;
#X connect 18 0 14 0;
#X connect 18 1 16 0;
#X connect 18 2 17 1;
#X connect 19 0 15 0;
#X connect 19 1 30 0;
#X connect 20 0 19 0;
#X connect 21 0 22 0;
#X connect 23 0 26 1;
#X connect 25 0 24 0;
#X connect 26 0 29 0;
#X connect 26 0 6 0;
#X connect 27 0 13 0;
#X connect 28 0 27 0;
#X connect 29 0 28 0;
#X connect 29 1 27 0;
#X connect 30 0 18 0;
#X connect 31 0 57 0;
#X connect 32 0 33 0;
#X connect 33 0 53 0;
#X connect 34 0 32 0;
#X connect 34 0 56 2;
#X connect 34 0 57 2;
#X connect 35 0 34 0;
#X connect 36 0 35 0;
#X connect 37 0 38 0;
#X connect 38 0 54 0;
#X connect 39 0 37 0;
#X connect 39 0 56 3;
#X connect 39 0 57 3;
#X connect 40 0 39 0;
#X connect 41 0 40 0;
#X connect 42 0 43 0;
#X connect 43 0 55 0;
#X connect 44 0 42 0;
#X connect 44 0 56 4;
#X connect 44 0 57 4;
#X connect 45 0 44 0;
#X connect 46 0 45 0;
#X connect 47 0 48 0;
#X connect 48 0 4 0;
#X connect 49 0 47 0;
#X connect 49 0 56 5;
#X connect 49 0 57 5;
#X connect 50 0 49 0;
#X connect 51 0 50 0;
#X coords 0 -1 1 1 160 115 1 100 100;
