#N canvas 342 96 530 400 10;
#X obj 104 171 openpanel;
#X obj 104 121 bng 35 250 50 0 empty empty load 8 17 1 10 -258113 -260097
-262144;
#X msg 105 300 read -resize \$1 \$2-sfL \$2-sfR;
#X obj 131 239 \$0;
#X obj 104 213 t s b;
#X obj 105 268 pack s f;
#N canvas 0 22 450 300 (subpatch) 0;
#X array \$0-sfL 509757 float 2;
#X coords 0 1 509757 -1 100 20 1;
#X restore 186 117 graph;
#N canvas 0 22 450 300 (subpatch) 0;
#X array \$0-sfR 509757 float 2;
#X coords 0 1 509757 -1 100 20 1;
#X restore 186 137 graph;
#X obj 105 326 soundfiler;
#X obj 309 257 tabplay~ \$0-sfL;
#X obj 409 257 tabplay~ \$0-sfR;
#X obj 309 227 t b b;
#X obj 143 121 bng 35 250 50 0 empty empty play 8 17 1 10 -4034 -260097
-262144;
#X obj 309 292 outlet~;
#X obj 409 293 outlet~;
#X obj 359 68 loadbang;
#X obj 359 101 \$0;
#X msg 359 130 \; \$1-sfL resize 3 \; \$1-sfR resize 3;
#X connect 0 0 4 0;
#X connect 1 0 0 0;
#X connect 2 0 8 0;
#X connect 3 0 5 1;
#X connect 4 0 5 0;
#X connect 4 1 3 0;
#X connect 5 0 2 0;
#X connect 9 0 13 0;
#X connect 10 0 14 0;
#X connect 11 0 9 0;
#X connect 11 1 10 0;
#X connect 12 0 11 0;
#X connect 15 0 16 0;
#X connect 16 0 17 0;
#X coords 0 -1 1 1 190 60 1 100 100;
