#N canvas 305 174 616 445 10;
#N canvas 0 22 494 344 note 0;
#X obj 17 62 filledpolygon 900 111 1 0 0 0 1 duration 1 duration 0
0 0;
#X obj 17 86 drawpolygon 111 1 0 0.5 velocity 0.5;
#X obj 17 33 struct \$1-note float x float y float velocity float duration
;
#X obj 49 175 drawnumber y 0 0 100 p=;
#X obj 49 198 drawnumber x 0 -1 100 t=;
#X obj 24 147 r \$1-pt;
#X connect 5 0 4 0;
#X connect 5 0 3 0;
#X restore 13 209 pd note;
#N canvas 322 22 706 517 guts 0;
#X obj 236 57 t b f;
#X obj 236 101 /;
#X msg 236 79 600;
#X msg 266 214 \; \$1-reset clear;
#X obj 236 169 t b b;
#X obj 457 404 pack s s;
#X obj 457 340 t b s;
#X obj 457 296 savepanel;
#X obj 458 166 pack s s;
#X obj 458 97 t b s;
#X obj 458 76 openpanel;
#X obj 234 334 r \$1-show-score;
#X obj 266 194 symbol \$1;
#X obj 236 251 symbol \$1;
#X obj 457 271 r \$1-save;
#X obj 457 358 symbol \$1;
#X obj 458 123 symbol \$1;
#X obj 458 51 r \$1-open;
#X obj 234 359 symbol \$1;
#X obj 236 123 s \$1-delay-multiply;
#X obj 458 144 makefilename pd-%s-score;
#X obj 457 381 makefilename pd-%s-score;
#X obj 234 385 makefilename pd-%s-score;
#X msg 234 408 \; \$1 vis 1;
#X msg 457 427 \; \$1 write \$2;
#X msg 236 292 \; \$1 sort;
#X msg 458 189 \; \$1 clear \; \$1 read \$2;
#X obj 128 85 inlet;
#N canvas 0 22 581 585 playback 0;
#X msg 38 269 next;
#X obj 270 356 *;
#X obj 103 409 makenote;
#X obj 103 378 pipe 0 0 0 0;
#X obj 129 333 /;
#X obj 129 354 * 127;
#X obj 185 350 *;
#X obj 103 434 pack;
#X obj 103 460 outlet;
#X obj 103 264 pointer \$1-note;
#X obj 103 289 get \$1-note y velocity duration x;
#X obj 25 348 r \$1-reset;
#X obj 286 332 r \$1-delay-multiply;
#X obj 125 117 symbol \$1;
#X obj 103 194 symbol \$1;
#X msg 103 237 traverse \$1 \, next;
#X obj 103 217 makefilename pd-%s-score;
#X obj 125 138 makefilename pd-%s-score;
#X msg 125 159 \; \$1 sort;
#X obj 103 34 t b b b;
#X msg 147 78 \; \$1-reset clear;
#X obj 147 58 symbol \$1;
#X obj 103 9 r start;
#X connect 0 0 9 0;
#X connect 1 0 3 3;
#X connect 2 0 7 0;
#X connect 2 1 7 1;
#X connect 3 0 2 0;
#X connect 3 1 2 1;
#X connect 3 2 2 2;
#X connect 4 0 5 0;
#X connect 5 0 3 1;
#X connect 6 0 3 2;
#X connect 7 0 8 0;
#X connect 9 0 10 0;
#X connect 10 0 3 0;
#X connect 10 0 0 0;
#X connect 10 1 4 0;
#X connect 10 2 4 1;
#X connect 10 2 6 0;
#X connect 10 3 1 0;
#X connect 11 0 3 0;
#X connect 12 0 1 1;
#X connect 12 0 6 1;
#X connect 13 0 17 0;
#X connect 14 0 16 0;
#X connect 15 0 9 0;
#X connect 16 0 15 0;
#X connect 17 0 18 0;
#X connect 19 0 14 0;
#X connect 19 1 13 0;
#X connect 19 2 21 0;
#X connect 21 0 20 0;
#X connect 22 0 19 0;
#X restore 23 85 pd playback;
#X obj 23 116 outlet;
#N canvas 0 22 965 554 record 0;
#X obj 580 113 inlet;
#X obj 110 140 f;
#X obj 137 140 + 1;
#X obj 580 134 spigot;
#X obj 60 81 sel 0;
#X obj 60 108 0;
#X obj 363 436 pointer;
#X obj 247 391 t b b;
#X obj 247 436 unpack 0 0 0 0;
#X msg 247 412 0 60 80 100;
#X obj 247 367 r \$1-add-note;
#X obj 363 369 symbol \$1;
#X obj 247 461 append \$1-note x y velocity duration;
#X obj 363 391 makefilename pd-%s-score;
#X msg 363 412 traverse \$1 \, bang;
#X obj 220 340 t l b;
#X obj 580 199 route 1 2 3 4 5 6 7 8 9 10;
#X obj 580 178 pack 0 0 0;
#N canvas 0 22 527 381 notecalculate 0;
#X obj 266 97 timer;
#X obj 295 44 sel 0;
#X obj 170 74 unpack;
#X obj 117 254 pack 0 0 0 0;
#X obj 207 143 t b f;
#X obj 207 166 f;
#X obj 133 132 f;
#X obj 154 219 f;
#X obj 191 219 f;
#X obj 225 220 f;
#X obj 117 220 f;
#X obj 117 194 t b b b b;
#X obj 266 75 b;
#X obj 207 97 / 127;
#X obj 207 188 *;
#X obj 117 172 del 50;
#X obj 266 136 /;
#X obj 282 116 r \$1-delay-multiply;
#X obj 64 78 r \$1-time;
#X obj 117 276 s \$1-append;
#X obj 170 14 inlet;
#X connect 0 0 16 0;
#X connect 1 0 0 1;
#X connect 1 1 12 0;
#X connect 2 0 7 1;
#X connect 2 1 1 0;
#X connect 2 1 13 0;
#X connect 3 0 19 0;
#X connect 4 0 5 0;
#X connect 4 1 14 1;
#X connect 5 0 14 0;
#X connect 6 0 10 1;
#X connect 7 0 3 1;
#X connect 8 0 3 2;
#X connect 9 0 3 3;
#X connect 10 0 3 0;
#X connect 11 0 10 0;
#X connect 11 1 7 0;
#X connect 11 2 8 0;
#X connect 11 3 9 0;
#X connect 12 0 0 0;
#X connect 12 0 6 0;
#X connect 13 0 5 1;
#X connect 14 0 8 1;
#X connect 14 0 15 0;
#X connect 15 0 11 0;
#X connect 16 0 4 0;
#X connect 16 0 9 1;
#X connect 17 0 16 1;
#X connect 18 0 6 1;
#X connect 20 0 2 0;
#X restore 580 229 pd notecalculate;
#X obj 220 314 r \$1-append;
#N canvas 0 22 523 377 notecalculate 0;
#X obj 266 97 timer;
#X obj 295 44 sel 0;
#X obj 170 74 unpack;
#X obj 117 254 pack 0 0 0 0;
#X obj 207 143 t b f;
#X obj 207 166 f;
#X obj 133 132 f;
#X obj 154 219 f;
#X obj 191 219 f;
#X obj 225 220 f;
#X obj 117 220 f;
#X obj 117 194 t b b b b;
#X obj 266 75 b;
#X obj 207 97 / 127;
#X obj 207 188 *;
#X obj 117 172 del 50;
#X obj 266 136 /;
#X obj 282 116 r \$1-delay-multiply;
#X obj 64 78 r \$1-time;
#X obj 117 276 s \$1-append;
#X obj 170 14 inlet;
#X connect 0 0 16 0;
#X connect 1 0 0 1;
#X connect 1 1 12 0;
#X connect 2 0 7 1;
#X connect 2 1 1 0;
#X connect 2 1 13 0;
#X connect 3 0 19 0;
#X connect 4 0 5 0;
#X connect 4 1 14 1;
#X connect 5 0 14 0;
#X connect 6 0 10 1;
#X connect 7 0 3 1;
#X connect 8 0 3 2;
#X connect 9 0 3 3;
#X connect 10 0 3 0;
#X connect 11 0 10 0;
#X connect 11 1 7 0;
#X connect 11 2 8 0;
#X connect 11 3 9 0;
#X connect 12 0 0 0;
#X connect 12 0 6 0;
#X connect 13 0 5 1;
#X connect 14 0 8 1;
#X connect 14 0 15 0;
#X connect 15 0 11 0;
#X connect 16 0 4 0;
#X connect 16 0 9 1;
#X connect 17 0 16 1;
#X connect 18 0 6 1;
#X connect 20 0 2 0;
#X restore 597 251 pd notecalculate;
#N canvas 0 22 523 377 notecalculate 0;
#X obj 266 97 timer;
#X obj 295 44 sel 0;
#X obj 170 74 unpack;
#X obj 117 254 pack 0 0 0 0;
#X obj 207 143 t b f;
#X obj 207 166 f;
#X obj 133 132 f;
#X obj 154 219 f;
#X obj 191 219 f;
#X obj 225 220 f;
#X obj 117 220 f;
#X obj 117 194 t b b b b;
#X obj 266 75 b;
#X obj 207 97 / 127;
#X obj 207 188 *;
#X obj 117 172 del 50;
#X obj 266 136 /;
#X obj 282 116 r \$1-delay-multiply;
#X obj 64 78 r \$1-time;
#X obj 117 276 s \$1-append;
#X obj 170 14 inlet;
#X connect 0 0 16 0;
#X connect 1 0 0 1;
#X connect 1 1 12 0;
#X connect 2 0 7 1;
#X connect 2 1 1 0;
#X connect 2 1 13 0;
#X connect 3 0 19 0;
#X connect 4 0 5 0;
#X connect 4 1 14 1;
#X connect 5 0 14 0;
#X connect 6 0 10 1;
#X connect 7 0 3 1;
#X connect 8 0 3 2;
#X connect 9 0 3 3;
#X connect 10 0 3 0;
#X connect 11 0 10 0;
#X connect 11 1 7 0;
#X connect 11 2 8 0;
#X connect 11 3 9 0;
#X connect 12 0 0 0;
#X connect 12 0 6 0;
#X connect 13 0 5 1;
#X connect 14 0 8 1;
#X connect 14 0 15 0;
#X connect 15 0 11 0;
#X connect 16 0 4 0;
#X connect 16 0 9 1;
#X connect 17 0 16 1;
#X connect 18 0 6 1;
#X connect 20 0 2 0;
#X restore 615 274 pd notecalculate;
#N canvas 0 22 523 377 notecalculate 0;
#X obj 266 97 timer;
#X obj 295 44 sel 0;
#X obj 170 74 unpack;
#X obj 117 254 pack 0 0 0 0;
#X obj 207 143 t b f;
#X obj 207 166 f;
#X obj 133 132 f;
#X obj 154 219 f;
#X obj 191 219 f;
#X obj 225 220 f;
#X obj 117 220 f;
#X obj 117 194 t b b b b;
#X obj 266 75 b;
#X obj 207 97 / 127;
#X obj 207 188 *;
#X obj 117 172 del 50;
#X obj 266 136 /;
#X obj 282 116 r \$1-delay-multiply;
#X obj 64 78 r \$1-time;
#X obj 117 276 s \$1-append;
#X obj 170 14 inlet;
#X connect 0 0 16 0;
#X connect 1 0 0 1;
#X connect 1 1 12 0;
#X connect 2 0 7 1;
#X connect 2 1 1 0;
#X connect 2 1 13 0;
#X connect 3 0 19 0;
#X connect 4 0 5 0;
#X connect 4 1 14 1;
#X connect 5 0 14 0;
#X connect 6 0 10 1;
#X connect 7 0 3 1;
#X connect 8 0 3 2;
#X connect 9 0 3 3;
#X connect 10 0 3 0;
#X connect 11 0 10 0;
#X connect 11 1 7 0;
#X connect 11 2 8 0;
#X connect 11 3 9 0;
#X connect 12 0 0 0;
#X connect 12 0 6 0;
#X connect 13 0 5 1;
#X connect 14 0 8 1;
#X connect 14 0 15 0;
#X connect 15 0 11 0;
#X connect 16 0 4 0;
#X connect 16 0 9 1;
#X connect 17 0 16 1;
#X connect 18 0 6 1;
#X connect 20 0 2 0;
#X restore 632 296 pd notecalculate;
#X obj 110 111 metro 1;
#X obj 110 226 s \$1-time;
#X obj 110 201 /;
#X obj 121 179 r \$1-delay-multiply;
#X obj 110 21 r \$1-record;
#X obj 617 92 r \$1-record;
#N canvas 0 22 523 377 notecalculate 0;
#X obj 266 97 timer;
#X obj 295 44 sel 0;
#X obj 170 74 unpack;
#X obj 117 254 pack 0 0 0 0;
#X obj 207 143 t b f;
#X obj 207 166 f;
#X obj 133 132 f;
#X obj 154 219 f;
#X obj 191 219 f;
#X obj 225 220 f;
#X obj 117 220 f;
#X obj 117 194 t b b b b;
#X obj 266 75 b;
#X obj 207 97 / 127;
#X obj 207 188 *;
#X obj 117 172 del 50;
#X obj 266 136 /;
#X obj 282 116 r \$1-delay-multiply;
#X obj 64 78 r \$1-time;
#X obj 117 276 s \$1-append;
#X obj 170 14 inlet;
#X connect 0 0 16 0;
#X connect 1 0 0 1;
#X connect 1 1 12 0;
#X connect 2 0 7 1;
#X connect 2 1 1 0;
#X connect 2 1 13 0;
#X connect 3 0 19 0;
#X connect 4 0 5 0;
#X connect 4 1 14 1;
#X connect 5 0 14 0;
#X connect 6 0 10 1;
#X connect 7 0 3 1;
#X connect 8 0 3 2;
#X connect 9 0 3 3;
#X connect 10 0 3 0;
#X connect 11 0 10 0;
#X connect 11 1 7 0;
#X connect 11 2 8 0;
#X connect 11 3 9 0;
#X connect 12 0 0 0;
#X connect 12 0 6 0;
#X connect 13 0 5 1;
#X connect 14 0 8 1;
#X connect 14 0 15 0;
#X connect 15 0 11 0;
#X connect 16 0 4 0;
#X connect 16 0 9 1;
#X connect 17 0 16 1;
#X connect 18 0 6 1;
#X connect 20 0 2 0;
#X restore 650 319 pd notecalculate;
#N canvas 0 22 523 377 notecalculate 0;
#X obj 266 97 timer;
#X obj 295 44 sel 0;
#X obj 170 74 unpack;
#X obj 117 254 pack 0 0 0 0;
#X obj 207 143 t b f;
#X obj 207 166 f;
#X obj 133 132 f;
#X obj 154 219 f;
#X obj 191 219 f;
#X obj 225 220 f;
#X obj 117 220 f;
#X obj 117 194 t b b b b;
#X obj 266 75 b;
#X obj 207 97 / 127;
#X obj 207 188 *;
#X obj 117 172 del 50;
#X obj 266 136 /;
#X obj 282 116 r \$1-delay-multiply;
#X obj 64 78 r \$1-time;
#X obj 117 276 s \$1-append;
#X obj 170 14 inlet;
#X connect 0 0 16 0;
#X connect 1 0 0 1;
#X connect 1 1 12 0;
#X connect 2 0 7 1;
#X connect 2 1 1 0;
#X connect 2 1 13 0;
#X connect 3 0 19 0;
#X connect 4 0 5 0;
#X connect 4 1 14 1;
#X connect 5 0 14 0;
#X connect 6 0 10 1;
#X connect 7 0 3 1;
#X connect 8 0 3 2;
#X connect 9 0 3 3;
#X connect 10 0 3 0;
#X connect 11 0 10 0;
#X connect 11 1 7 0;
#X connect 11 2 8 0;
#X connect 11 3 9 0;
#X connect 12 0 0 0;
#X connect 12 0 6 0;
#X connect 13 0 5 1;
#X connect 14 0 8 1;
#X connect 14 0 15 0;
#X connect 15 0 11 0;
#X connect 16 0 4 0;
#X connect 16 0 9 1;
#X connect 17 0 16 1;
#X connect 18 0 6 1;
#X connect 20 0 2 0;
#X restore 667 341 pd notecalculate;
#N canvas 0 22 523 377 notecalculate 0;
#X obj 266 97 timer;
#X obj 295 44 sel 0;
#X obj 170 74 unpack;
#X obj 117 254 pack 0 0 0 0;
#X obj 207 143 t b f;
#X obj 207 166 f;
#X obj 133 132 f;
#X obj 154 219 f;
#X obj 191 219 f;
#X obj 225 220 f;
#X obj 117 220 f;
#X obj 117 194 t b b b b;
#X obj 266 75 b;
#X obj 207 97 / 127;
#X obj 207 188 *;
#X obj 117 172 del 50;
#X obj 266 136 /;
#X obj 282 116 r \$1-delay-multiply;
#X obj 64 78 r \$1-time;
#X obj 117 276 s \$1-append;
#X obj 170 14 inlet;
#X connect 0 0 16 0;
#X connect 1 0 0 1;
#X connect 1 1 12 0;
#X connect 2 0 7 1;
#X connect 2 1 1 0;
#X connect 2 1 13 0;
#X connect 3 0 19 0;
#X connect 4 0 5 0;
#X connect 4 1 14 1;
#X connect 5 0 14 0;
#X connect 6 0 10 1;
#X connect 7 0 3 1;
#X connect 8 0 3 2;
#X connect 9 0 3 3;
#X connect 10 0 3 0;
#X connect 11 0 10 0;
#X connect 11 1 7 0;
#X connect 11 2 8 0;
#X connect 11 3 9 0;
#X connect 12 0 0 0;
#X connect 12 0 6 0;
#X connect 13 0 5 1;
#X connect 14 0 8 1;
#X connect 14 0 15 0;
#X connect 15 0 11 0;
#X connect 16 0 4 0;
#X connect 16 0 9 1;
#X connect 17 0 16 1;
#X connect 18 0 6 1;
#X connect 20 0 2 0;
#X restore 686 364 pd notecalculate;
#N canvas 0 22 523 377 notecalculate 0;
#X obj 266 97 timer;
#X obj 295 44 sel 0;
#X obj 170 74 unpack;
#X obj 117 254 pack 0 0 0 0;
#X obj 207 143 t b f;
#X obj 207 166 f;
#X obj 133 132 f;
#X obj 154 219 f;
#X obj 191 219 f;
#X obj 225 220 f;
#X obj 117 220 f;
#X obj 117 194 t b b b b;
#X obj 266 75 b;
#X obj 207 97 / 127;
#X obj 207 188 *;
#X obj 117 172 del 50;
#X obj 266 136 /;
#X obj 282 116 r \$1-delay-multiply;
#X obj 64 78 r \$1-time;
#X obj 117 276 s \$1-append;
#X obj 170 14 inlet;
#X connect 0 0 16 0;
#X connect 1 0 0 1;
#X connect 1 1 12 0;
#X connect 2 0 7 1;
#X connect 2 1 1 0;
#X connect 2 1 13 0;
#X connect 3 0 19 0;
#X connect 4 0 5 0;
#X connect 4 1 14 1;
#X connect 5 0 14 0;
#X connect 6 0 10 1;
#X connect 7 0 3 1;
#X connect 8 0 3 2;
#X connect 9 0 3 3;
#X connect 10 0 3 0;
#X connect 11 0 10 0;
#X connect 11 1 7 0;
#X connect 11 2 8 0;
#X connect 11 3 9 0;
#X connect 12 0 0 0;
#X connect 12 0 6 0;
#X connect 13 0 5 1;
#X connect 14 0 8 1;
#X connect 14 0 15 0;
#X connect 15 0 11 0;
#X connect 16 0 4 0;
#X connect 16 0 9 1;
#X connect 17 0 16 1;
#X connect 18 0 6 1;
#X connect 20 0 2 0;
#X restore 702 386 pd notecalculate;
#N canvas 0 22 523 377 notecalculate 0;
#X obj 266 97 timer;
#X obj 295 44 sel 0;
#X obj 170 74 unpack;
#X obj 117 254 pack 0 0 0 0;
#X obj 207 143 t b f;
#X obj 207 166 f;
#X obj 133 132 f;
#X obj 154 219 f;
#X obj 191 219 f;
#X obj 225 220 f;
#X obj 117 220 f;
#X obj 117 194 t b b b b;
#X obj 266 75 b;
#X obj 207 97 / 127;
#X obj 207 188 *;
#X obj 117 172 del 50;
#X obj 266 136 /;
#X obj 282 116 r \$1-delay-multiply;
#X obj 64 78 r \$1-time;
#X obj 117 276 s \$1-append;
#X obj 170 14 inlet;
#X connect 0 0 16 0;
#X connect 1 0 0 1;
#X connect 1 1 12 0;
#X connect 2 0 7 1;
#X connect 2 1 1 0;
#X connect 2 1 13 0;
#X connect 3 0 19 0;
#X connect 4 0 5 0;
#X connect 4 1 14 1;
#X connect 5 0 14 0;
#X connect 6 0 10 1;
#X connect 7 0 3 1;
#X connect 8 0 3 2;
#X connect 9 0 3 3;
#X connect 10 0 3 0;
#X connect 11 0 10 0;
#X connect 11 1 7 0;
#X connect 11 2 8 0;
#X connect 11 3 9 0;
#X connect 12 0 0 0;
#X connect 12 0 6 0;
#X connect 13 0 5 1;
#X connect 14 0 8 1;
#X connect 14 0 15 0;
#X connect 15 0 11 0;
#X connect 16 0 4 0;
#X connect 16 0 9 1;
#X connect 17 0 16 1;
#X connect 18 0 6 1;
#X connect 20 0 2 0;
#X restore 721 409 pd notecalculate;
#N canvas 0 22 523 377 notecalculate 0;
#X obj 266 97 timer;
#X obj 295 44 sel 0;
#X obj 170 74 unpack;
#X obj 117 254 pack 0 0 0 0;
#X obj 207 143 t b f;
#X obj 207 166 f;
#X obj 133 132 f;
#X obj 154 219 f;
#X obj 191 219 f;
#X obj 225 220 f;
#X obj 117 220 f;
#X obj 117 194 t b b b b;
#X obj 266 75 b;
#X obj 207 97 / 127;
#X obj 207 188 *;
#X obj 117 172 del 50;
#X obj 266 136 /;
#X obj 282 116 r \$1-delay-multiply;
#X obj 64 78 r \$1-time;
#X obj 117 276 s \$1-append;
#X obj 170 14 inlet;
#X connect 0 0 16 0;
#X connect 1 0 0 1;
#X connect 1 1 12 0;
#X connect 2 0 7 1;
#X connect 2 1 1 0;
#X connect 2 1 13 0;
#X connect 3 0 19 0;
#X connect 4 0 5 0;
#X connect 4 1 14 1;
#X connect 5 0 14 0;
#X connect 6 0 10 1;
#X connect 7 0 3 1;
#X connect 8 0 3 2;
#X connect 9 0 3 3;
#X connect 10 0 3 0;
#X connect 11 0 10 0;
#X connect 11 1 7 0;
#X connect 11 2 8 0;
#X connect 11 3 9 0;
#X connect 12 0 0 0;
#X connect 12 0 6 0;
#X connect 13 0 5 1;
#X connect 14 0 8 1;
#X connect 14 0 15 0;
#X connect 15 0 11 0;
#X connect 16 0 4 0;
#X connect 16 0 9 1;
#X connect 17 0 16 1;
#X connect 18 0 6 1;
#X connect 20 0 2 0;
#X restore 739 431 pd notecalculate;
#X obj 580 156 poly 10 1;
#X connect 0 0 3 0;
#X connect 1 0 2 0;
#X connect 1 0 25 0;
#X connect 2 0 1 1;
#X connect 3 0 35 0;
#X connect 4 0 5 0;
#X connect 5 0 1 0;
#X connect 6 0 12 4;
#X connect 7 0 9 0;
#X connect 7 1 11 0;
#X connect 8 0 12 0;
#X connect 8 1 12 1;
#X connect 8 2 12 2;
#X connect 8 3 12 3;
#X connect 9 0 8 0;
#X connect 10 0 7 0;
#X connect 11 0 13 0;
#X connect 13 0 14 0;
#X connect 14 0 6 0;
#X connect 15 0 8 0;
#X connect 15 1 11 0;
#X connect 16 0 18 0;
#X connect 16 1 20 0;
#X connect 16 2 21 0;
#X connect 16 3 22 0;
#X connect 16 4 29 0;
#X connect 16 5 30 0;
#X connect 16 6 31 0;
#X connect 16 7 32 0;
#X connect 16 8 33 0;
#X connect 16 9 34 0;
#X connect 17 0 16 0;
#X connect 19 0 15 0;
#X connect 23 0 1 0;
#X connect 25 0 24 0;
#X connect 26 0 25 1;
#X connect 27 0 4 0;
#X connect 27 0 23 0;
#X connect 28 0 3 1;
#X connect 35 0 17 0;
#X connect 35 1 17 1;
#X connect 35 2 17 2;
#X restore 128 115 pd record;
#X obj 236 272 makefilename pd-%s-score;
#X obj 73 179 r \$1-record;
#X obj 343 29 r \$1-path-open;
#X obj 559 101 print;
#X obj 458 318 makefilename %s.txt;
#X obj 344 56 symbol;
#X obj 236 146 r stop;
#X obj 236 29 r tempo;
#X obj 73 207 s record;
#X connect 0 0 2 0;
#X connect 0 1 1 1;
#X connect 1 0 19 0;
#X connect 2 0 1 0;
#X connect 4 0 13 0;
#X connect 4 1 12 0;
#X connect 5 0 24 0;
#X connect 6 0 15 0;
#X connect 6 1 5 1;
#X connect 7 0 35 0;
#X connect 8 0 26 0;
#X connect 9 0 16 0;
#X connect 9 1 8 1;
#X connect 10 0 9 0;
#X connect 10 0 34 0;
#X connect 11 0 18 0;
#X connect 12 0 3 0;
#X connect 13 0 31 0;
#X connect 14 0 7 0;
#X connect 15 0 21 0;
#X connect 16 0 20 0;
#X connect 17 0 10 0;
#X connect 18 0 22 0;
#X connect 20 0 8 0;
#X connect 21 0 5 0;
#X connect 22 0 23 0;
#X connect 27 0 30 0;
#X connect 28 0 29 0;
#X connect 31 0 25 0;
#X connect 32 0 39 0;
#X connect 33 0 36 0;
#X connect 35 0 6 0;
#X connect 36 0 9 0;
#X connect 37 0 4 0;
#X connect 38 0 0 0;
#X restore 7 122 pd guts;
#X obj 7 144 outlet;
#N canvas 0 61 973 358 ass-score 1;
#X coords 0 35.7995 1 35.6995 0 0 0;
#X restore 13 229 pd \$1-score;
#X obj 252 205 bng 40 250 50 0 \$1-save empty save 7 20 1 10 -62784
-1 -262144;
#X obj 252 119 bng 40 250 50 0 \$1-add-note empty add-note 2 20 1 8
-62784 -1 -262144;
#X obj 208 119 bng 40 250 50 0 \$1-show-score empty score 5 20 1 10
-62784 -1 -262144;
#X obj 208 205 bng 40 250 50 0 \$1-open empty open 7 20 1 10 -62784
-1 -262144;
#X obj 7 100 inlet;
#X obj 208 162 tgl 40 0 \$1-record empty rec 10 20 1 12 -62784 -1 -262144
0 1;
#X obj 252 162 tgl 40 1 \$1-pt empty p/t 12 20 1 12 -62784 -1 -262144
1 1;
#X obj 69 121 s \$1-path-open;
#X obj 69 98 r \$1;
#X connect 1 0 2 0;
#X connect 8 0 1 0;
#X connect 12 0 11 0;
#X coords 0 -1 1 1 100 150 1 200 100;
