#N canvas 91 22 822 715 10;
#X msg 551 98 bang;
#X text 499 72 resets all the voices;
#X obj 2 9 cnv 15 800 40 empty empty pdt.rtgranular5~ 20 12 0 14 -4160
-262144 0;
#X text 18 250 The control mechanism is meant to be flexible so that
the user can define how they want to control the engine without having
to modify or rewrite the abstraction.;
#X text 19 164 Because 32 voices can take up a lot of cpu cycles all
voices have a built in mechanism to turn their internal dsp off when
they are at rest and awaiting instruction. Similarly when they are
active a blocking mechanism is switched on so that new instructions
can only be processed when the voice is done its current task.;
#X obj 478 261 pdt.master5.1~;
#X obj 569 226 lop~ 80;
#X obj 505 166 pdt.rtgranular5~;
#X obj 539 202 hip~ 80;
#X text 19 81 pdt.rtgranular5 is a 32 voice granular synthesis engine
designed to be a starting point. The right inlet takes a list specifying
lens size (ms) \, pitch transposition in semitones \, and grain delay.
Bang center inlet to reset all voices to dsp off and ready to receive
a message. The left inlet is the signal input.;
#N canvas 0 22 377 341 load 0;
#X obj 128 178 cputime;
#X obj 128 38 loadbang;
#X obj 128 122 metro 1000;
#X msg 128 66 1;
#X floatatom 128 94 0 0 0 0 - - -;
#X obj 128 150 t b b;
#X obj 128 238 * 0.1;
#X obj 128 207 int;
#X text 173 94 <-- on/off;
#X obj 128 270 outlet;
#X text 61 294 CPU load in percent;
#X connect 0 0 7 0;
#X connect 1 0 3 0;
#X connect 2 0 5 0;
#X connect 3 0 4 0;
#X connect 4 0 2 0;
#X connect 5 0 0 0;
#X connect 5 1 0 1;
#X connect 6 0 9 0;
#X connect 7 0 6 0;
#X restore 73 302 pd load;
#X text 27 356 CPU load in percent;
#X floatatom 74 330 5 0 0 0 - - -;
#X obj 420 505 f \$0;
#X obj 420 476 loadbang;
#X msg 479 476 bang;
#X obj 583 478 table \$0-pitch.set;
#X obj 163 598 tabread \$0-pitch.set;
#X obj 163 570 random 8;
#X obj 144 503 t b b b;
#X obj 208 543 r \$0-end;
#X obj 135 640 pack f f f;
#X obj 317 555 random 500;
#X obj 144 407 tgl 40 0 empty empty empty 17 7 0 10 -262144 -1 -1 0
1;
#X text 147 409 start;
#X text 145 425 engine;
#X obj 72 554 random 300;
#X obj 135 671 s \$0-instructions;
#X obj 598 133 r \$0-instructions;
#X obj 144 468 metro 20;
#X text 61 515 duration;
#X text 208 508 transposition;
#X text 324 533 delay;
#X text 403 680 transposition pitch set;
#X text 73 380 --------------------------example--------------------------
;
#X msg 420 530 \; \$1-pitch.set resize 8 \; \$1-pitch.set bounds 0
12 7 -12 \; \$1-pitch.set xticks 0 1 1 \; \$1-pitch.set yticks 0 1
1 \; \$1-pitch.set ylabel -0.25 -12 -11 -10 -9 -8 -7 -6 -5 -4 -3 -2
-1 0 1 2 3 4 5 6 7 8 9 10 11 12 \; \$1-pitch.set 0 -12 -9 -5 -2 0 3
7 12 \; \$1-end 8;
#X obj 425 108 osc~ 440;
#X connect 0 0 7 1;
#X connect 6 0 5 3;
#X connect 7 0 5 0;
#X connect 7 1 5 1;
#X connect 7 2 6 0;
#X connect 7 2 8 0;
#X connect 7 3 5 4;
#X connect 7 4 5 5;
#X connect 8 0 5 2;
#X connect 10 0 12 0;
#X connect 13 0 35 0;
#X connect 14 0 13 0;
#X connect 15 0 13 0;
#X connect 17 0 21 1;
#X connect 18 0 17 0;
#X connect 19 0 26 0;
#X connect 19 1 18 0;
#X connect 19 2 22 0;
#X connect 20 0 18 1;
#X connect 21 0 27 0;
#X connect 22 0 21 2;
#X connect 23 0 29 0;
#X connect 26 0 21 0;
#X connect 28 0 7 2;
#X connect 29 0 19 0;
#X connect 36 0 7 0;
