#N canvas 397 126 457 425 10;
#X obj 156 195 delwrite~ \$0-del 1000;
#X obj 63 265 vd~ \$0-del;
#X obj 32 76 inlet~;
#X obj 32 352 outlet~;
#X obj 156 155 *~;
#X obj 32 300 pdt.xfade~;
#X obj 229 124 clip~ 0 0.9;
#X obj 63 239 clip~ 0 1000;
#X obj 345 255 clip~ 0 1;
#X obj 63 205 inlet~;
#X obj 229 89 inlet~;
#X obj 345 227 inlet~;
#X obj 168 90 inlet;
#X obj 156 129 hip~;
#X connect 1 0 13 0;
#X connect 1 0 5 1;
#X connect 2 0 0 0;
#X connect 2 0 5 0;
#X connect 4 0 0 0;
#X connect 5 0 3 0;
#X connect 6 0 4 1;
#X connect 7 0 1 0;
#X connect 8 0 5 2;
#X connect 9 0 7 0;
#X connect 10 0 6 0;
#X connect 11 0 8 0;
#X connect 12 0 13 1;
#X connect 13 0 4 0;
#X coords 0 0 1 1 110 90 0;
