#N canvas 0 22 450 300 10;
#X obj 189 129 random 100;
#X obj 126 61 \$0;
#X msg 126 87 seed \$1;
#X obj 126 33 loadbang;
#X obj 189 158 <= \$1;
#X obj 189 205 sel 1;
#X obj 189 232 outlet;
#X obj 189 33 inlet;
#X obj 242 233 outlet;
#X obj 255 33 inlet;
#X obj 189 182 t f f;
#X obj 189 76 b;
#X connect 0 0 4 0;
#X connect 1 0 2 0;
#X connect 2 0 0 0;
#X connect 3 0 1 0;
#X connect 4 0 10 0;
#X connect 5 0 6 0;
#X connect 7 0 11 0;
#X connect 9 0 4 1;
#X connect 10 0 5 0;
#X connect 10 1 8 0;
#X connect 11 0 0 0;
