#N canvas 407 25 852 724 10;
#X obj 6 326 *~;
#X obj 292 393 *~;
#X obj 229 445 cos~;
#X obj 229 472 *~;
#X obj 229 501 +~;
#X obj 316 352 wrap~;
#X obj 461 395 *~;
#X obj 398 455 cos~;
#X obj 398 482 *~;
#X obj 316 325 +~ 0.5;
#X obj 229 393 -~ 0.5;
#X obj 229 419 *~ 0.5;
#X obj 398 394 -~ 0.5;
#X obj 398 427 *~ 0.5;
#X obj 229 152 * 0.05776;
#X text 308 145 <-- transposition;
#X text 351 158 (halftones);
#X text 264 287 tape head;
#X obj 229 351 phasor~;
#X text 265 300 rotation freq;
#X obj 415 330 sig~ 100;
#X obj 356 224 sig~ 0.1;
#X obj 229 294 /~;
#X obj 229 257 *~ -1;
#X obj 229 231 -~ 1;
#X obj 606 401 throw~ \$1-channel1;
#X text 92 432 f(x)=cos((x-pi)*0.5);
#X obj 648 264 f \$2;
#X obj 648 320 makefilename \$1-channel%d;
#X obj 648 234 loadbang;
#X obj 292 445 vd~ \$0-pitch;
#X obj 461 457 vd~ \$0-pitch;
#X obj 229 178 exp;
#X text 9 106 Lens;
#X text 310 93 Pitch;
#X text 606 121 delay;
#X msg 6 176 0 \, 1 \$1;
#X obj 156 85 unpack f f f;
#X obj 257 -145 unpack f f f;
#X obj 257 -119 +;
#X obj 257 -61 del;
#X obj 257 -1 unpack;
#X obj 156 -72 spigot;
#X obj 156 -46 t l l b;
#X msg 195 -10 0 1;
#X msg 257 -32 1 0;
#X obj 94 -147 r \$1-instructions;
#X obj 156 -103 route \$2;
#X text 342 -91 block when busy;
#X obj 72 297 r~ \$1-signal;
#X obj 6 251 cos~;
#X obj 6 227 +~ 0.5;
#X obj 6 275 *~ 0.5;
#X obj 6 299 +~ 0.5;
#X obj 302 -61 r \$1-reset;
#X obj 320 47 switch~;
#X obj 6 201 line~;
#X obj 257 -91 + 100;
#X obj 578 141 t b f;
#X obj 590 266 *~;
#X obj 524 223 line~;
#X msg 524 195 0 \, 1 10;
#X obj 605 201 delread~ \$0-particle;
#X obj 648 292 mod \$3;
#X obj 6 352 delwrite~ \$0-pitch 1000;
#X obj 229 529 delwrite~ \$0-particle 1000;
#X msg 648 358 set \$1;
#X connect 0 0 64 0;
#X connect 1 0 30 0;
#X connect 2 0 3 0;
#X connect 3 0 4 0;
#X connect 4 0 65 0;
#X connect 5 0 6 0;
#X connect 5 0 12 0;
#X connect 6 0 31 0;
#X connect 7 0 8 0;
#X connect 8 0 4 1;
#X connect 9 0 5 0;
#X connect 10 0 11 0;
#X connect 11 0 2 0;
#X connect 12 0 13 0;
#X connect 13 0 7 0;
#X connect 14 0 32 0;
#X connect 18 0 1 0;
#X connect 18 0 10 0;
#X connect 18 0 9 0;
#X connect 20 0 1 1;
#X connect 20 0 6 1;
#X connect 21 0 22 1;
#X connect 22 0 18 0;
#X connect 23 0 22 0;
#X connect 24 0 23 0;
#X connect 27 0 63 0;
#X connect 28 0 66 0;
#X connect 29 0 27 0;
#X connect 30 0 3 1;
#X connect 31 0 8 1;
#X connect 32 0 24 0;
#X connect 36 0 56 0;
#X connect 37 0 36 0;
#X connect 37 1 14 0;
#X connect 37 2 58 0;
#X connect 38 0 39 0;
#X connect 38 2 39 1;
#X connect 39 0 57 0;
#X connect 40 0 45 0;
#X connect 41 0 42 1;
#X connect 41 1 55 0;
#X connect 42 0 43 0;
#X connect 43 0 37 0;
#X connect 43 1 38 0;
#X connect 43 2 44 0;
#X connect 44 0 41 0;
#X connect 45 0 41 0;
#X connect 46 0 47 0;
#X connect 47 0 42 0;
#X connect 49 0 0 1;
#X connect 50 0 52 0;
#X connect 51 0 50 0;
#X connect 52 0 53 0;
#X connect 53 0 0 0;
#X connect 54 0 45 0;
#X connect 56 0 51 0;
#X connect 57 0 40 0;
#X connect 58 0 61 0;
#X connect 58 1 62 0;
#X connect 59 0 25 0;
#X connect 60 0 59 0;
#X connect 61 0 60 0;
#X connect 62 0 59 1;
#X connect 63 0 28 0;
#X connect 66 0 25 0;
